<?xml version="1.0" encoding="utf-8"?>
<svg version="1.1" id="Capa_1" xmlns="http://www.w3.org/2000/svg" xmlns:xlink="http://www.w3.org/1999/xlink" x="0px" y="0px"
	 viewBox="0 0 512 512" style="enable-background:new 0 0 512 512;" xml:space="preserve">
<style type="text/css">
	.st0{fill:#00508a;}
</style>
<g>
	<g>
		<path id="SoundCloud" class="st0" d="M0,307.3c0,17.3,7.9,32.8,20.3,43.2v-86.4C7.9,274.5,0,290,0,307.3 M41.8,252.8v109.1
			c5.1,1.4,10.4,2.2,15.9,2.2h5.5V250.8c-1.8-0.2-3.7-0.3-5.6-0.3C52.1,250.6,46.8,251.4,41.8,252.8 M89.2,259.9
			c-1.5-0.9-2.9-1.8-4.5-2.6v106.8h21.5V221.2C97.6,232.3,91.7,245.5,89.2,259.9 M127.6,201.1v163h21.5V190.5
			C141.4,193.1,134.2,196.7,127.6,201.1 M170.6,186.1v178H192V186.7c-4.4-0.7-8.9-1-13.5-1C175.8,185.7,173.2,185.9,170.6,186.1
			 M225.3,198.6c-7-4.2-14.6-7.4-22.6-9.6v175.1H235V185.7C231.5,189.8,228.2,194.1,225.3,198.6 M245.7,175v189.1h204v-0.3
			c42.9-2.7,62.3-29.4,62.3-61.9c0-34.3-26-62.2-60.9-62.2c-9,0-16.3,1.8-24.1,5.2c-5.6-54.5-51.8-97.1-108.8-97.1
			C290.3,147.9,265,158.1,245.7,175"/>
	</g>
</g>
</svg>
